# xmcd
#
# Track frame offsets:
#	150
#	17945
#	33812
#	53175
#	72015
#	88687
#	102267
#	121087
#	137465
#	154150
#	174245
#	190097
#
# Disc length: 2752 seconds
#
# Revision: 1
# Processed by: cddbd v1.5.2PL0 Copyright (c) Steve Scherf et al.
# Submitted via: audiograbber 1.83.01
#
DISCID=8f0abe0c
DTITLE=JOSÉ AUGUSTO - PRISIONEIRO
DYEAR=1900
DGENRE=
TTITLE0=PRISIONEIRO
TTITLE1=ILUSÃO
TTITLE2=APAIXONADO
TTITLE3=PRESTA ATENÇÃO
TTITLE4=SIM OU NÃO
TTITLE5=SE EU TIVER VOCÊ
TTITLE6=TUDO IGUAL
TTITLE7=NO MEU CORAÇÃO VOCÊ VAI SEMPRE ESTAR
TTITLE8=QUALQUER JEITO
TTITLE9=XEQUE MATE
TTITLE10=SE VOCÊ VOLTASSE
TTITLE11=MÃE MARIA
EXTD=
EXTT0=
EXTT1=
EXTT2=
EXTT3=
EXTT4=
EXTT5=
EXTT6=
EXTT7=
EXTT8=
EXTT9=
EXTT10=
EXTT11=
PLAYORDER=
